<?xml version="1.0" encoding="utf-8"?>
<!-- Generator: Adobe Illustrator 15.0.0, SVG Export Plug-In . SVG Version: 6.00 Build 0)  -->
<!DOCTYPE svg PUBLIC "-//W3C//DTD SVG 1.1//EN" "http://www.w3.org/Graphics/SVG/1.1/DTD/svg11.dtd">
<svg version="1.1" id="Layer_2" xmlns="http://www.w3.org/2000/svg" xmlns:xlink="http://www.w3.org/1999/xlink" x="0px" y="0px"
	 width="24px" height="24px" viewBox="0 0 24 24" enable-background="new 0 0 24 24" xml:space="preserve" aria-labelledby="title" aria-describedby="desc">
<title id="title">Skype</title>
<desc id="desc">Skype icon</desc>
<g id="layer1">
	
		<linearGradient id="path3225_1_" gradientUnits="userSpaceOnUse" x1="10.5" y1="23.5" x2="10.5" y2="1.5" gradientTransform="matrix(1 0 0 -1 1 24)">
		<stop  offset="0" style="stop-color:#00AFF0"/>
		<stop  offset="0.72" style="stop-color:#00AFF0"/>
		<stop  offset="1" style="stop-color:#B0EAFF"/>
	</linearGradient>
	<path id="path3225" fill="url(#path3225_1_)" d="M6.25,0C2.8,0,0,2.8,0,6.25c0,1.065,0.264,2.075,0.734,2.953
		C0.577,9.943,0.5,10.713,0.5,11.5c0,6.072,4.928,11,11,11c0.787,0,1.557-0.077,2.297-0.234C14.678,22.74,15.68,23,16.75,23
		c3.449,0,6.25-2.8,6.25-6.25c0-1.07-0.26-2.072-0.734-2.953c0.156-0.74,0.234-1.51,0.234-2.297c0-6.072-4.928-11-11-11
		c-0.787,0-1.556,0.093-2.296,0.25C8.325,0.279,7.315,0,6.25,0z"/>
	
		<radialGradient id="path3263_1_" cx="-829.1411" cy="287.7471" r="10.6476" gradientTransform="matrix(-0.1477 -0.6714 -1.7164 0.3775 390.2455 -660.1276)" gradientUnits="userSpaceOnUse">
		<stop  offset="0" style="stop-color:#FFFFFF;stop-opacity:0"/>
		<stop  offset="0.0974" style="stop-color:#FFFFFF;stop-opacity:0"/>
		<stop  offset="0.8593" style="stop-color:#FFFFFF;stop-opacity:0.5556"/>
		<stop  offset="1" style="stop-color:#FFFFFF;stop-opacity:0.6296"/>
	</radialGradient>
	<path id="path3263" fill="url(#path3263_1_)" d="M6.25,0.5C3.076,0.5,0.5,3.076,0.5,6.25
		c0,1.051,0.288,2.027,0.781,2.875c-0.431,1.638-0.288,3.289,0.031,4.929c1.944-0.733,6.034-2.415,8.813-3.116
		c3.427-0.776,7.187-1.21,10.699-1.421c-0.688-2.095-1.057-5.036-2.752-6.438S14.047,1,11.5,1c-0.41,0-0.812,0.026-1.208,0.074
		C9.897,1.122,9.507,1.192,9.125,1.281C8.702,1.035,8.245,0.839,7.764,0.706C7.282,0.572,6.776,0.5,6.25,0.5z"/>
	<path id="path3254" fill="#00AFF0" fill-opacity="0.5137" d="M6.25,1C3.352,1,1,3.352,1,6.25c0,1.034,0.296,2,0.812,2.812
		C1.616,9.845,1.5,10.657,1.5,11.5c0,5.52,4.48,10,10,10c0.842,0,1.654-0.116,2.438-0.312C14.75,21.704,15.717,22,16.75,22
		c2.898,0,5.25-2.352,5.25-5.25c0-1.033-0.297-2-0.812-2.812c0.195-0.782,0.312-1.595,0.312-2.438c0-5.52-4.48-10-10-10
		c-0.844,0-1.656,0.116-2.437,0.312C8.25,1.296,7.284,1,6.25,1z M6.25,1.5c1.004,0,1.936,0.312,2.703,0.844
		C9.764,2.118,10.617,2,11.5,2c5.244,0,9.5,4.256,9.5,9.5c0,0.883-0.119,1.736-0.344,2.547c0.531,0.768,0.844,1.699,0.844,2.703
		c0,2.622-2.129,4.75-4.75,4.75c-1.004,0-1.936-0.312-2.703-0.844C13.236,20.882,12.383,21,11.5,21C6.256,21,2,16.744,2,11.5
		c0-0.883,0.118-1.736,0.344-2.547C1.812,8.186,1.5,7.254,1.5,6.25C1.5,3.628,3.627,1.5,6.25,1.5z"/>
	<path id="path3206" fill="#00AFF0" d="M6.25,0C2.8,0,0,2.8,0,6.25c0,1.065,0.264,2.075,0.734,2.953
		C0.577,9.943,0.5,10.713,0.5,11.5c0,6.072,4.928,11,11,11c0.787,0,1.557-0.077,2.297-0.234C14.678,22.74,15.68,23,16.75,23
		c3.449,0,6.25-2.8,6.25-6.25c0-1.07-0.26-2.072-0.734-2.953c0.156-0.74,0.234-1.51,0.234-2.297c0-6.072-4.928-11-11-11
		c-0.787,0-1.556,0.093-2.296,0.25C8.325,0.279,7.315,0,6.25,0z M6.25,0.5c1.051,0,2.027,0.288,2.875,0.781
		C9.889,1.104,10.682,1,11.5,1C17.295,1,22,5.704,22,11.5c0,0.812-0.092,1.601-0.266,2.359c0.492,0.848,0.766,1.842,0.766,2.891
		c0,3.174-2.576,5.75-5.75,5.75c-1.045,0-2.016-0.294-2.859-0.781C13.121,21.898,12.322,22,11.5,22C5.704,22,1,17.296,1,11.5
		c0-0.821,0.103-1.624,0.281-2.391C0.794,8.265,0.5,7.294,0.5,6.25C0.5,3.076,3.076,0.5,6.25,0.5z"/>
	<path id="path3337" fill="#FFFFFF" d="M11.297,4.555c-3.437,0-5.468,1.547-5.468,4.203c0,2.89,3.766,3.636,6.093,3.953
		c2.178,0.584,2.25,0.924,2.25,1.875c0,1.186-1.498,1.641-2.516,1.641c-3.074,0-2.847-2.234-4.484-2.234
		c-0.844,0-1.25,0.281-1.25,1.344s2.188,3.109,5.625,3.109c3.438,0,5.625-1.328,5.625-3.984c0-2.734-2.264-3.543-5.25-4.344
		c-1.988-0.482-3.093-0.83-3.093-1.781c0-1.186,1.263-1.641,2.281-1.641c3.072,0,2.393,1.969,4.031,1.969
		c0.844,0,1.359-0.172,1.359-1.234S14.734,4.555,11.297,4.555z"/>
	<path id="path3356" fill="#00AFF0" fill-opacity="0.4241" d="M11.297,4.062c-1.794,0-3.273,0.395-4.328,1.203
		S5.329,7.294,5.329,8.75c0,1.662,1.129,2.775,2.453,3.406c1.303,0.621,2.841,0.869,4.015,1.031c0.02,0.003,0.043,0.014,0.062,0.016
		c0.992,0.273,1.504,0.527,1.656,0.672c0.078,0.075,0.102,0.118,0.125,0.219s0.031,0.253,0.031,0.484
		c0,0.383-0.207,0.618-0.609,0.828s-0.973,0.328-1.406,0.328c-1.416,0-1.929-0.451-2.421-0.969
		c-0.248-0.259-0.465-0.555-0.781-0.812C8.136,13.695,7.696,13.5,7.172,13.5c-0.479,0-0.951,0.067-1.297,0.406
		s-0.453,0.843-0.453,1.438c0,0.438,0.199,0.838,0.5,1.234s0.721,0.775,1.25,1.125c1.059,0.699,2.557,1.234,4.375,1.234
		c1.783,0,3.277-0.332,4.375-1.078c1.096-0.746,1.75-1.926,1.75-3.391c0-1.505-0.682-2.601-1.719-3.312
		c-1.039-0.712-2.402-1.112-3.906-1.516V9.625c-0.988-0.24-1.746-0.448-2.187-0.672c-0.221-0.112-0.366-0.22-0.438-0.312
		C9.35,8.548,9.329,8.485,9.329,8.344c0-0.416,0.18-0.646,0.516-0.844s0.83-0.312,1.265-0.312c1.43,0,1.799,0.374,2.172,0.812
		c0.186,0.219,0.355,0.489,0.641,0.734s0.709,0.422,1.219,0.422c0.455,0,0.908-0.021,1.297-0.312S17,8.034,17,7.422
		c0-0.808-0.568-1.602-1.531-2.25S13.104,4.062,11.297,4.062z M11.297,4.562c3.438,0,5.203,1.812,5.203,2.875
		s-0.516,1.219-1.359,1.219c-1.639,0-0.959-1.969-4.031-1.969c-1.018,0-2.281,0.47-2.281,1.656c0,0.952,1.105,1.299,3.093,1.781
		c2.986,0.801,5.25,1.609,5.25,4.344c0,2.656-2.188,3.969-5.625,3.969c-3.437,0-5.625-2.031-5.625-3.094S6.329,14,7.172,14
		c1.637,0,1.41,2.219,4.484,2.219c1.018,0,2.516-0.439,2.516-1.625c0-0.951-0.072-1.291-2.25-1.875
		C9.594,12.401,5.829,11.64,5.829,8.75C5.829,6.094,7.86,4.562,11.297,4.562z"/>
</g>
</svg>
